<svg id="Layer_1" data-name="Layer 1" xmlns="http://www.w3.org/2000/svg" viewBox="0 0 296 142.81">
  <path d="M87.15,137.05l-.49-.35Z"/>
  <path d="M86.66,136.7l-.13-.1Z"/>
  <path d="M52.62,70.67l.48.41Z"/>
  <path d="M53.1,71.08l.12.1Z"/>
  <path d="M149.61,67.29a6.51,6.51,0,1,1,9.21-9.21,6.51,6.51,0,0,1-9.21,9.21Z" fill="#3c51fa"/>
  <path d="M54.17,54.71a36.6,36.6,0,0,1,16.9,16.1L47,13.18a7.23,7.23,0,0,0-13.34,5.57l14,33.54A36.53,36.53,0,0,0,24.34,54a37,37,0,0,0-7,3.89l.22.07A36.58,36.58,0,0,1,54.17,54.71Z" fill="#6374fb"/>
  <path d="M53.22,71.18c.32.28.63.58.93.88C53.85,71.76,53.54,71.46,53.22,71.18Z" fill="#1c89ea"/>
  <path d="M4.64,101.9a36.33,36.33,0,0,0,10.57,14.18,36.67,36.67,0,0,1,2.3-58.15l-.22-.07A36.57,36.57,0,0,0,4.64,101.9Z" fill="#0e4575"/>
  <path d="M112.84,109.86V130a4,4,0,0,1-8,0V93.66a20.29,20.29,0,1,1,8,16.2Zm0-16.2v.08a12.35,12.35,0,1,0,0-.08Z" fill="#fff"/>
  <path d="M96,34.5A7.17,7.17,0,0,0,86.52,38L71.1,70.87l0-.06,1.14,2.73.05.13a36.63,36.63,0,0,1-55,44,36.63,36.63,0,0,0,54.59-14.19l.06-.14L99.61,44.08A7.21,7.21,0,0,0,96,34.5Z" fill="#b1b9fd"/>
  <path d="M150,109.7V77.05a4,4,0,0,1,8,0V109.7a4,4,0,1,1-8,0Z" fill="#fff"/>
  <path d="M203.33,93.34v16.28a4,4,0,1,1-8,0V93.34a12.32,12.32,0,1,0-24.63,0v16.28a4,4,0,1,1-8,0V93.34a20.34,20.34,0,1,1,40.67,0Z" fill="#fff"/>
  <path d="M248.77,113.67a20.35,20.35,0,0,1-38.64,8.91,4,4,0,0,1,1.86-5.35,4,4,0,0,1,5.35,1.78,12.32,12.32,0,0,0,23.41-5.1v-4.45a20.27,20.27,0,0,1-32.64-16.12,20.33,20.33,0,1,1,40.66,0Zm-8-20.33a12.31,12.31,0,1,0-12.31,12.31A12.36,12.36,0,0,0,240.75,93.34Z" fill="#fff"/>
  <path d="M253.55,93.34a20.34,20.34,0,1,1,20.33,20.33A20.34,20.34,0,0,1,253.55,93.34Zm8,0A12.32,12.32,0,1,0,273.88,81,12.36,12.36,0,0,0,261.57,93.34Z" fill="#3c51fa"/>
  <path d="M72.26,73.67l-.05-.13-1.14-2.73A36.7,36.7,0,0,0,17.51,57.93,54.37,54.37,0,0,1,33,66.28a22.24,22.24,0,0,1,19.65,4.39l.48.41.12.1c.32.28.63.58.93.88a22.09,22.09,0,0,1,4.63,25.12l-.06.13A21.91,21.91,0,0,1,53.94,104c.18,1.81.28,3.65.28,5.51a54.62,54.62,0,0,1-1.34,12A36.76,36.76,0,0,0,72.26,73.67Z" fill="#3c51fa"/>
  <path d="M18,96.33a21.88,21.88,0,0,0,6.59,8.72A22.19,22.19,0,0,1,33.12,66.4L33,66.28A22.22,22.22,0,0,0,18,96.33Z" fill="#0e4575"/>
  <path d="M53.94,104a22.15,22.15,0,0,1-24.72,4A22.95,22.95,0,0,1,18,96.33a22.22,22.22,0,0,1,15-30,54.37,54.37,0,0,0-15.46-8.35,36.67,36.67,0,0,0-2.3,58.15c.46.37.91.75,1.39,1.1l.13.11.49.34a36.61,36.61,0,0,0,35.34,4l.32-.14a54.62,54.62,0,0,0,1.34-12C54.22,107.6,54.12,105.76,53.94,104Z" fill="#6374fb"/>
  <path d="M15.21,116.08c.45.38.91.75,1.39,1.1C16.12,116.83,15.67,116.45,15.21,116.08Z" fill="#0e4575"/>
</svg>
